<?xml version="1.0" encoding="UTF-8"?>
<svg xmlns="http://www.w3.org/2000/svg" version="1.1" viewBox="0 0 550.2 98">
  <defs>
    <style>
      .cls-1 {
        fill: #f3bb36;
      }

      .cls-2 {
        fill: #6a933e;
      }

      .cls-3 {
        fill: #94b13b;
      }

      .cls-4 {
        fill: #f6d08b;
      }

      .cls-5 {
        fill: #869acf;
      }

      .cls-6 {
        fill: #f5e7d7;
      }

      .cls-7 {
        fill: #f7db94;
      }

      .cls-8 {
        fill: #7fb2d8;
      }

      .cls-9 {
        fill: #f3b36c;
      }

      .cls-10 {
        fill: #ee8a46;
      }

      .cls-11 {
        fill: #086161;
      }

      .cls-12 {
        fill: #c3d830;
      }

      .cls-13 {
        fill: #74cce5;
      }
    </style>
  </defs>
  <!-- Generator: Adobe Illustrator 28.7.1, SVG Export Plug-In . SVG Version: 1.2.0 Build 142)  -->
  <g>
    <g id="Layer_1">
      <g id="Layer_1-2" data-name="Layer_1">
        <g id="MG">
          <g>
            <g>
              <g>
                <path class="cls-1" d="M50,10c10.4,0,19.9,4,27.1,10.5,3.4-1.5,6.9-2.6,10.6-3.4C78.5,6.6,65.1,0,50,0S21.5,6.6,12.3,17.1c3.7.8,7.2,2,10.6,3.4,7.1-6.5,16.6-10.5,27.1-10.5Z"/>
                <path class="cls-4" d="M50,27.5c4.2,0,8.1,1.1,11.5,3.1,2.6-2.4,5.4-4.5,8.4-6.3-5.5-4.3-12.4-6.8-19.9-6.8s-14.4,2.5-19.9,6.8c3,1.8,5.8,4,8.4,6.3,3.4-2,7.3-3.1,11.5-3.1Z"/>
                <path class="cls-6" d="M56,36.3c-1.8-.8-3.9-1.3-6-1.3s-4.2.4-6,1.3c2.3,2.7,4.3,5.6,6,8.6,1.7-3.1,3.8-5.9,6-8.6Z"/>
              </g>
              <path class="cls-5" d="M58.3,45.7c3.6.5,7.1,1.4,10.5,2.6,6.9-8.6,17.3-14.2,29-14.8-1-3.4-2.4-6.6-4.1-9.7-14.8,1.8-27.5,10.1-35.4,21.9h0Z"/>
              <path class="cls-8" d="M76.1,51.3c3.1,1.6,6,3.4,8.7,5.4,4-3.7,9.3-5.9,15.2-5.9v-2.8c0-2.4-.2-4.8-.5-7.2-9.2,0-17.6,4.2-23.4,10.5h0Z"/>
              <path class="cls-13" d="M95.9,67.9c1.3-3,2.4-6.2,3-9.6-3.2.2-6.1,1.4-8.4,3.4,1.9,1.9,3.8,4,5.4,6.2h0Z"/>
              <path class="cls-10" d="M31.2,48.2c3.4-1.2,6.9-2,10.5-2.6-7.9-11.8-20.6-20.1-35.4-22-1.7,3-3.1,6.3-4.1,9.7,11.7.6,22.1,6.3,29,14.8h0Z"/>
              <path class="cls-9" d="M23.9,51.3c-5.8-6.3-14.1-10.3-23.4-10.5-.3,2.3-.5,4.8-.5,7.2v2.8c5.8,0,11.2,2.3,15.2,5.9,2.7-2.1,5.6-3.9,8.7-5.4h0Z"/>
              <path class="cls-7" d="M1.1,58.3c.7,3.3,1.7,6.5,3,9.6,1.7-2.2,3.5-4.2,5.4-6.2-2.3-1.9-5.2-3.1-8.5-3.4h0Z"/>
              <path class="cls-2" d="M50,52.5c-17.6,0-33,9.1-41.9,22.7,2,3,4.2,5.8,6.7,8.2,6.8-12.5,20-21,35.2-21s28.4,8.5,35.2,21c2.5-2.5,4.8-5.3,6.7-8.2-8.9-13.7-24.4-22.7-41.9-22.7Z"/>
              <path class="cls-3" d="M50,70c-12.9,0-24.1,7.5-29.3,18.5,2.7,2,5.6,3.7,8.7,5.1,3.5-7.9,11.4-13.5,20.6-13.5s17.2,5.6,20.6,13.5c3.1-1.4,6-3.1,8.7-5.1-5.2-10.9-16.4-18.5-29.3-18.5h0Z"/>
              <path class="cls-12" d="M50,87.5c-6,0-11.2,3.5-13.6,8.6,4.3,1.2,8.9,1.9,13.6,1.9s9.2-.6,13.6-1.9c-2.4-5.1-7.6-8.6-13.6-8.6Z"/>
            </g>
            <g>
              <polygon class="cls-11" points="161 24 161 29.8 154 29.8 154 24 151.7 24 151.7 38 154 38 154 31.9 161 31.9 161 38 163.3 38 163.3 24 161 24"/>
              <path class="cls-11" d="M174,29.9c-.3-.7-.8-1.2-1.4-1.6s-1.5-.5-2.4-.5-1.4,0-2,.3-1,.5-1.4.9-.6.8-.9,1.2l2,.7c.2-.4.5-.7.9-.9s.8-.3,1.2-.3.9,0,1.2.4.5.6.7,1c0,.2.1.5.2.8h-2.5c-1.2,0-2.2.3-2.9.8s-1.1,1.3-1.1,2.4.3,1.7,1,2.3,1.6.8,2.8.8,2.1-.4,2.7-1.2v-.2,1.1h2.2v-5.5c0-1-.1-1.9-.4-2.6h0ZM171.9,35.1c-.2.4-.5.7-.9.9-.4.2-.8.3-1.3.3s-1,0-1.3-.3-.5-.5-.5-.9.2-.8.5-1.1,1-.4,1.9-.4h1.8v.2c0,.4-.1.8-.3,1.2h.1Z"/>
              <path class="cls-11" d="M191.7,28.9c-.7-.7-1.6-1.1-2.8-1.1s-1.5.2-2,.6c-.6.4-1,.9-1.3,1.7-.2-.4-.4-.8-.6-1.1-.7-.7-1.6-1.1-2.8-1.1s-1.5.2-2,.6c-.4.3-.7.6-1,1.1v-1.4h-2.2v10h2.2v-5.2c0-.9.2-1.7.6-2.2.4-.5,1-.8,1.7-.7.4,0,.8,0,1.1.3.3.2.6.5.8.9s.3,1.1.3,1.8v5.1h2.2v-5.2c0-.9.2-1.7.6-2.2s1-.8,1.8-.7c.4,0,.8,0,1.1.3s.6.5.8.9.3,1.1.3,1.8v5.1h2.2v-5.7c0-1.5-.3-2.7-1-3.4h0v-.2Z"/>
              <path class="cls-11" d="M196.5,26.1c-.4,0-.7,0-.9-.4s-.4-.6-.4-.9.1-.7.4-.9.6-.4.9-.4.7,0,.9.4.4.6.4.9-.1.7-.4.9-.6.4-.9.4ZM195.3,38v-10h2.2v10h-2.2Z"/>
              <path class="cls-11" d="M200.3,38v-14h2.2v14h-2.2Z"/>
              <path class="cls-11" d="M210.5,35.8c-.2.2-.4.2-.5.3s-.3,0-.4,0c-.4,0-.8,0-1-.4s-.3-.6-.3-1.1v-4.8h2.7v-1.9h-2.7v-3.1h-2.2v3.1h-1.7v1.9h1.7v5.3c0,1,.3,1.7.8,2.3s1.4.8,2.4.8.7,0,1-.2c.4,0,.7-.3,1-.6l-.8-1.7h0Z"/>
              <path class="cls-11" d="M217.7,38.2c-1,0-1.9-.2-2.7-.7s-1.4-1.1-1.8-1.8-.7-1.7-.7-2.7.2-1.9.6-2.7,1-1.4,1.8-1.8,1.6-.7,2.6-.7,1.9.2,2.7.7,1.4,1.1,1.8,1.8.6,1.7.6,2.7-.2,1.9-.6,2.7-1,1.4-1.8,1.8-1.6.7-2.6.7h.1ZM217.7,36.2c.6,0,1,0,1.5-.4.4-.3.8-.7,1-1.1s.4-1,.4-1.7-.1-1.2-.4-1.7-.6-.8-1-1.1c-.4-.3-.9-.4-1.5-.4s-1,0-1.5.4c-.4.3-.8.7-1,1.1s-.4,1-.4,1.7.1,1.2.4,1.7.6.8,1,1.1c.4.3.9.4,1.5.4h0Z"/>
              <path class="cls-11" d="M232.9,28.9c-.7-.7-1.6-1.1-2.8-1.1s-1.5.2-2,.6c-.4.3-.7.6-1,1.1v-1.4h-2.2v10h2.2v-5.2c0-.9.2-1.7.6-2.2s1-.8,1.7-.7c.4,0,.8,0,1.1.3.3.2.6.5.8.9.2.4.3,1.1.3,1.8v5.1h2.2v-5.7c0-1.5-.3-2.7-1-3.4h0Z"/>
              <path class="cls-11" d="M247.9,38.2c-1.4,0-2.5-.3-3.6-.9s-1.9-1.5-2.5-2.6-.9-2.3-.9-3.8.3-2.7.9-3.8c.6-1.1,1.4-1.9,2.5-2.6s2.2-.9,3.6-.9,1.8.2,2.6.5c.8.3,1.5.8,2.1,1.3s1.1,1.2,1.4,2l-2.1.9c-.2-.5-.6-1-1-1.3s-.9-.7-1.4-.9-1.1-.3-1.6-.3c-.9,0-1.7.2-2.4.7s-1.2,1-1.6,1.8-.6,1.7-.6,2.7.2,1.9.6,2.7c.4.8.9,1.4,1.6,1.8s1.5.7,2.4.7,1.1,0,1.6-.3c.5-.2,1-.6,1.4-1s.7-.9,1-1.4l2.1.9c-.3.8-.8,1.5-1.4,2.1s-1.3,1.1-2.1,1.4c-.8.3-1.7.5-2.6.5h0v-.2Z"/>
              <path class="cls-11" d="M264.1,28.9c-.7-.7-1.6-1.1-2.8-1.1s-1.5.2-2,.6c-.4.3-.7.6-1,1v-5.5h-2.2v14.2h2.3v-5.2h0c0-.9.2-1.7.6-2.2s1-.8,1.8-.7c.4,0,.8,0,1.1.3.3.2.6.5.8.9s.3,1.1.3,1.8v5.1h2.2v-5.7c0-1.5-.3-2.7-1-3.4h0Z"/>
              <path class="cls-11" d="M268.6,26.1c-.4,0-.7,0-.9-.4s-.4-.6-.4-.9.1-.7.4-.9.6-.4.9-.4.7,0,.9.4c.3.2.4.6.4.9s-.1.7-.4.9-.6.4-.9.4ZM267.5,38v-10h2.2v10h-2.2Z"/>
              <path class="cls-11" d="M272.5,38v-14h2.2v14h-2.2Z"/>
              <path class="cls-11" d="M284.4,24v5.5c-.3-.4-.6-.8-1-1.1-.6-.4-1.3-.7-2.2-.7s-1.7.2-2.4.7c-.7.4-1.2,1-1.6,1.8s-.6,1.7-.6,2.8.2,2,.6,2.8.9,1.4,1.6,1.8,1.5.7,2.4.7,1.6-.2,2.2-.7c.4-.3.7-.7,1-1.1v1.5h2.2v-14h-2.2ZM283.1,35.8c-.4.3-.8.4-1.4.4s-1,0-1.4-.4-.8-.7-1-1.1c-.2-.5-.4-1-.4-1.7s.1-1.2.4-1.7c.2-.5.6-.8,1-1.1s.9-.4,1.4-.4,1,0,1.4.4.7.6.9,1.1.3,1,.3,1.7-.1,1.2-.3,1.7-.5.9-.9,1.1Z"/>
              <path class="cls-11" d="M302,29.9c-.3-.7-.8-1.2-1.5-1.6-.6-.4-1.5-.5-2.4-.5s-1.4,0-2,.3-1,.5-1.4.9-.6.8-.9,1.2l2,.7c.2-.4.5-.7.9-.9s.8-.3,1.2-.3.9,0,1.2.4.5.6.7,1c0,.2.1.5.2.8h-2.5c-1.2,0-2.2.3-2.9.8-.7.6-1,1.3-1,2.4s.3,1.7,1,2.3,1.6.8,2.8.8,2.1-.4,2.7-1.2v-.2,1.1h2.2v-5.5c0-1-.1-1.9-.4-2.6h0ZM300,35.1c-.2.4-.5.7-.9.9-.4.2-.8.3-1.3.3s-1,0-1.3-.3-.5-.5-.5-.9.2-.8.5-1.1c.4-.2,1-.4,1.9-.4h1.8v.2c0,.4-.1.8-.3,1.2h0Z"/>
              <path class="cls-11" d="M312.8,28.9c-.7-.7-1.6-1.1-2.8-1.1s-1.5.2-2,.6c-.4.3-.7.6-1,1.1v-1.4h-2.2v10h2.2v-5.2c0-.9.2-1.7.6-2.2s1-.8,1.7-.7c.4,0,.8,0,1.1.3.3.2.6.5.8.9.2.4.3,1.1.3,1.8v5.1h2.2v-5.7c0-1.5-.3-2.7-1-3.4h0Z"/>
              <path class="cls-11" d="M323.3,24v5.5c-.3-.4-.6-.8-1-1.1-.6-.4-1.3-.7-2.2-.7s-1.7.2-2.4.7c-.7.4-1.2,1-1.6,1.8s-.6,1.7-.6,2.8.2,2,.6,2.8.9,1.4,1.6,1.8,1.5.7,2.4.7,1.6-.2,2.2-.7c.4-.3.7-.7,1-1.1v1.5h2.2v-14h-2.2ZM322,35.8c-.4.3-.8.4-1.4.4s-1,0-1.4-.4-.8-.7-1-1.1c-.2-.5-.4-1-.4-1.7s.1-1.2.4-1.7c.2-.5.6-.8,1-1.1s.9-.4,1.4-.4,1,0,1.4.4.7.6.9,1.1.3,1,.3,1.7-.1,1.2-.3,1.7-.5.9-.9,1.1Z"/>
              <polygon class="cls-11" points="342.3 26.1 342.3 24 335.9 24 335.5 24 333.6 24 333.6 38 335.9 38 335.9 32.2 341.4 32.2 341.4 30 335.9 30 335.9 26.1 342.3 26.1"/>
              <path class="cls-11" d="M351.8,29.9c-.3-.7-.8-1.2-1.5-1.6-.6-.4-1.5-.5-2.4-.5s-1.4,0-2,.3-1,.5-1.4.9-.6.8-.9,1.2l2,.7c.2-.4.5-.7.9-.9s.8-.3,1.2-.3.9,0,1.2.4.5.6.7,1c0,.2.1.5.2.8h-2.5c-1.2,0-2.2.3-2.9.8-.7.6-1,1.3-1,2.4s.3,1.7,1,2.3,1.6.8,2.8.8,2.1-.4,2.7-1.2v-.2,1.1h2.2v-5.5c0-1-.1-1.9-.4-2.6h0ZM349.7,35.1c-.2.4-.5.7-.9.9-.4.2-.8.3-1.3.3s-1,0-1.3-.3-.5-.5-.5-.9.2-.8.5-1.1c.4-.2,1-.4,1.9-.4h1.8v.2c0,.4-.1.8-.3,1.2h0Z"/>
              <path class="cls-11" d="M369.4,28.9c-.7-.7-1.6-1.1-2.8-1.1s-1.5.2-2,.6c-.6.4-1,.9-1.3,1.7-.2-.4-.4-.8-.6-1.1-.7-.7-1.6-1.1-2.8-1.1s-1.5.2-2,.6c-.4.3-.7.6-1,1.1v-1.4h-2.2v10h2.2v-5.2c0-.9.2-1.7.6-2.2s1-.8,1.7-.7c.4,0,.8,0,1.1.3.3.2.6.5.8.9.2.4.3,1.1.3,1.8v5.1h2.2v-5.2c0-.9.2-1.7.6-2.2s1-.8,1.8-.7c.4,0,.8,0,1.1.3s.6.5.8.9.3,1.1.3,1.8v5.1h2.2v-5.7c0-1.5-.3-2.7-1-3.4h0v-.2Z"/>
              <path class="cls-11" d="M374,26.1c-.4,0-.7,0-.9-.4s-.4-.6-.4-.9.1-.7.4-.9.6-.4.9-.4.7,0,.9.4c.3.2.4.6.4.9s-.1.7-.4.9-.6.4-.9.4ZM372.9,38v-10h2.2v10h-2.2Z"/>
              <path class="cls-11" d="M377.8,38v-14h2.2v14h-2.2Z"/>
              <path class="cls-11" d="M390.1,28l-3,7.4-3.1-7.4h-2.4l4.5,9.9-.5,1.3c-.1.3-.3.6-.5.7-.2.2-.5.2-.8.2s-.3,0-.5,0-.5-.2-.7-.3l-.8,1.8c.4.2.7.3,1.1.5s.8.2,1.1.2c.7,0,1.2,0,1.6-.4s.8-.6,1.1-1.1.6-1,.9-1.7l4.6-11.1h-2.6Z"/>
              <path class="cls-11" d="M404.1,38.2c-.7,0-1.4,0-2-.3-.6-.2-1.1-.4-1.6-.7s-.8-.7-1.1-1c-.3-.4-.5-.8-.6-1.2l2.3-.7c.2.5.5.9,1,1.3s1.1.6,1.9.6,1.5-.2,2.1-.5.8-.8.8-1.4-.2-1-.6-1.3-1-.6-1.7-.8l-1.7-.4c-.6-.2-1.2-.4-1.8-.8s-.9-.8-1.2-1.3-.5-1.1-.5-1.8c0-1.3.4-2.3,1.3-3.1s2.1-1.1,3.7-1.1,1.7,0,2.4.4c.7.3,1.2.7,1.7,1.1s.8,1,1,1.6l-2.2.7c-.2-.5-.5-1-1-1.3s-1.1-.5-1.8-.5-1.4.2-1.8.5c-.4.4-.6.9-.6,1.5s.2.9.5,1.2.8.5,1.4.7l1.7.4c1.2.3,2.2.8,2.9,1.6s1,1.6,1,2.5-.2,1.5-.6,2.1-1,1.1-1.7,1.4c-.8.3-1.7.5-2.8.5h-.4Z"/>
              <path class="cls-11" d="M418.1,28v5.2c0,.9-.2,1.7-.6,2.2s-1,.8-1.8.7c-.4,0-.8,0-1.1-.3-.3-.2-.6-.5-.8-.9s-.3-1.1-.3-1.8v-5.1h-2.2v5.7c0,1.5.3,2.7,1,3.4s1.6,1.1,2.8,1.1,1.5-.2,2-.6c.4-.3.7-.6,1-1.1v1.4h2.2v-10h-2.2Z"/>
              <path class="cls-11" d="M432.2,30.2c-.4-.8-.9-1.4-1.6-1.8s-1.5-.7-2.4-.7-1.6.2-2.2.7c-.4.3-.7.7-1,1.1v-1.5h-2.2v14h2.2v-5.5c.3.4.6.8,1,1.1.6.4,1.3.7,2.2.7s1.7-.2,2.4-.7c.7-.4,1.2-1,1.6-1.8s.6-1.7.6-2.8-.2-2-.6-2.8h0ZM430.1,34.7c-.2.5-.6.9-1,1.1s-.9.4-1.4.4-1,0-1.4-.4-.7-.7-.9-1.1-.3-1-.3-1.7.1-1.2.3-1.6.5-.9.9-1.1.9-.4,1.4-.4,1,0,1.4.4.7.6,1,1.1.4,1,.4,1.7-.1,1.2-.4,1.7h0Z"/>
              <path class="cls-11" d="M444.1,30.2c-.4-.8-.9-1.4-1.6-1.8s-1.5-.7-2.4-.7-1.6.2-2.2.7c-.4.3-.7.7-1,1.1v-1.5h-2.2v14h2.2v-5.5c.3.4.6.8,1,1.1.6.4,1.3.7,2.2.7s1.7-.2,2.4-.7c.7-.4,1.2-1,1.6-1.8s.6-1.7.6-2.8-.2-2-.6-2.8h0ZM442,34.7c-.2.5-.6.9-1,1.1s-.9.4-1.4.4-1,0-1.4-.4-.7-.7-.9-1.1-.3-1-.3-1.7.1-1.2.3-1.6.5-.9.9-1.1.9-.4,1.4-.4,1,0,1.4.4.7.6,1,1.1.4,1,.4,1.7-.1,1.2-.4,1.7h0Z"/>
              <path class="cls-11" d="M451.5,38.2c-1,0-1.9-.2-2.7-.7s-1.4-1.1-1.8-1.8-.7-1.7-.7-2.7.2-1.9.6-2.7,1-1.4,1.8-1.8,1.6-.7,2.6-.7,1.9.2,2.7.7,1.4,1.1,1.8,1.8.6,1.7.6,2.7-.2,1.9-.6,2.7-1,1.4-1.8,1.8-1.6.7-2.6.7h.1ZM451.5,36.2c.6,0,1,0,1.5-.4.4-.3.8-.7,1-1.1s.4-1,.4-1.7-.1-1.2-.4-1.7-.6-.8-1-1.1c-.4-.3-.9-.4-1.5-.4s-1,0-1.5.4c-.4.3-.8.7-1,1.1s-.4,1-.4,1.7.1,1.2.4,1.7.6.8,1,1.1c.4.3.9.4,1.5.4h0Z"/>
              <path class="cls-11" d="M462.3,28.5c-.6.3-1.1.8-1.5,1.3v-1.8h-2.2v10h2.2v-5.4c0-.6.2-1.1.5-1.5s.8-.6,1.3-.8c.5-.2,1.1-.2,1.7-.2v-2.1c-.7,0-1.4.2-2.1.5h0Z"/>
              <path class="cls-11" d="M471.6,35.8c-.2.2-.4.2-.5.3s-.3,0-.4,0c-.4,0-.8,0-1-.4s-.3-.6-.3-1.1v-4.8h2.7v-1.9h-2.7v-3.1h-2.2v3.1h-1.7v1.9h1.7v5.3c0,1,.3,1.7.8,2.3s1.4.8,2.4.8.7,0,1-.2c.3,0,.7-.3,1-.6l-.8-1.7h0Z"/>
              <path class="cls-11" d="M477.8,38.2c-.7,0-1.3,0-1.8-.3-.6-.2-1-.5-1.4-.8-.4-.4-.7-.8-.9-1.3l1.9-.9c.2.4.5.7.9.9s.8.4,1.3.4.9,0,1.2-.3.5-.4.5-.8,0-.5-.4-.7-.6-.3-1-.4l-.9-.3c-1-.2-1.7-.6-2.2-1.2-.5-.5-.8-1.1-.8-1.8,0-1,.3-1.8,1-2.3s1.6-.8,2.8-.8,1.2,0,1.7.3,1,.4,1.3.8.6.7.8,1.2l-1.9.8c0-.3-.4-.6-.8-.8s-.8-.3-1.2-.3-.8,0-1.1.3-.4.5-.4.8,0,.4.3.6.5.3,1,.4l1.2.3c.7.2,1.2.4,1.6.8s.7.7.9,1.1.3.8.3,1.3-.2,1.1-.5,1.6c-.3.4-.8.8-1.4,1.1s-1.2.4-2,.4h0Z"/>
              <path class="cls-11" d="M155.9,72.2c-.7,0-1.3,0-1.9-.2-.6-.2-1.1-.4-1.5-.7s-.8-.6-1.1-1-.5-.7-.6-1.1l2.2-.7c.2.5.5.9,1,1.2.5.3,1.1.5,1.8.6.8,0,1.5-.2,2-.5s.7-.8.7-1.3-.2-.9-.6-1.2-.9-.6-1.6-.8l-1.6-.4c-.6-.2-1.2-.4-1.7-.7-.5-.3-.9-.7-1.2-1.2s-.4-1.1-.4-1.7c0-1.2.4-2.2,1.2-2.9s2-1,3.5-1,1.6,0,2.2.4,1.2.6,1.6,1.1.7,1,.9,1.5l-2.1.7c-.2-.5-.5-.9-1-1.2s-1.1-.5-1.8-.5-1.3.2-1.7.5-.6.8-.6,1.4.2.9.5,1.2c.3.3.8.5,1.3.6l1.6.4c1.2.3,2.1.8,2.8,1.5s1,1.5,1,2.4-.2,1.4-.6,2c-.4.6-.9,1-1.6,1.4-.7.3-1.6.5-2.6.5h0v-.3Z"/>
              <path class="cls-11" d="M166.9,72.2c-1,0-1.8-.2-2.6-.6-.7-.4-1.3-1-1.7-1.8s-.6-1.6-.6-2.6.2-1.8.6-2.6c.4-.8,1-1.3,1.7-1.8.7-.4,1.6-.6,2.5-.6s1.8.2,2.6.6c.7.4,1.3,1,1.7,1.8s.6,1.6.6,2.6-.2,1.8-.6,2.6c-.4.8-1,1.3-1.7,1.8-.7.4-1.6.6-2.5.6h0ZM166.9,70.3c.5,0,1,0,1.4-.4s.7-.6.9-1.1.3-1,.3-1.6-.1-1.1-.3-1.6-.6-.8-1-1.1-.9-.4-1.4-.4-1,0-1.4.4-.7.6-.9,1.1-.3,1-.3,1.6.1,1.1.4,1.6c.2.4.6.8,1,1.1.4.3.9.4,1.4.4h0Z"/>
              <path class="cls-11" d="M179.5,62.5v5c0,.9-.2,1.6-.6,2.1s-.9.7-1.7.7-.8,0-1.1-.2-.6-.5-.7-.9-.3-1-.3-1.8v-4.9h-2.1v5.4c0,1.4.3,2.5.9,3.2s1.5,1.1,2.7,1.1,1.4-.2,1.9-.6c.4-.2.7-.6.9-1v1.3h2.1v-9.5h-2.1.1Z"/>
              <path class="cls-11" d="M188.7,69.9c-.2,0-.4.2-.5.3h-.4c-.4,0-.7,0-.9-.3s-.3-.6-.3-1v-4.6h2.6v-1.8h-2.6v-3h-2.1v3h-1.6v1.8h1.6v5c0,.9.3,1.7.8,2.2s1.3.8,2.3.8.7,0,1-.2.7-.3,1-.5l-.8-1.6h-.1Z"/>
              <path class="cls-11" d="M192.2,60.7c-.3,0-.6,0-.9-.4s-.4-.5-.4-.9.1-.6.4-.9c.2-.2.5-.4.9-.4s.6,0,.9.4c.2.2.4.5.4.9s-.1.6-.4.9-.5.4-.9.4ZM191.2,72v-9.5h2.1v9.5h-2.1Z"/>
              <path class="cls-11" d="M201.4,69.9c-.4.3-.8.4-1.4.4s-1,0-1.4-.3-.8-.6-1-1c-.2-.3-.3-.7-.3-1.1h7.1c0-1.1-.2-2.1-.6-2.9-.4-.8-.9-1.4-1.6-1.9-.7-.4-1.4-.7-2.3-.7s-1.8.2-2.5.6-1.3,1-1.7,1.8-.6,1.6-.6,2.6.2,1.8.6,2.6c.4.8,1,1.3,1.7,1.8.7.4,1.5.6,2.5.6s1.4,0,1.9-.3c.6-.2,1.1-.5,1.5-.9s.8-.8,1-1.3l-2-.8c-.2.4-.5.7-.9,1h0v-.2ZM197.5,65.6c.2-.5.5-.8.9-1.1s.9-.4,1.4-.4,1,0,1.3.4.6.7.8,1.2v.3h-4.7c0-.2,0-.3.1-.5h.2Z"/>
              <path class="cls-11" d="M213.5,63.3c-.6-.7-1.5-1.1-2.7-1.1s-1.4.2-1.9.6c-.4.2-.7.6-.9,1v-1.3h-2.1v9.5h2.1v-5c0-.9.2-1.6.6-2.1s.9-.7,1.6-.7.8,0,1.1.2c.3.2.5.4.7.9s.3,1,.3,1.8v4.9h2.1v-5.4c0-1.5-.3-2.5-.9-3.2h0Z"/>
              <path class="cls-11" d="M228.1,64.3c-.3-.7-.8-1.2-1.4-1.5s-1.4-.5-2.3-.5-1.4,0-1.9.3c-.5.2-1,.5-1.3.9s-.6.8-.8,1.2l1.9.7c.2-.4.5-.7.9-.9s.7-.3,1.2-.3.9,0,1.2.3c.3.2.5.6.7,1,0,.2.1.5.2.8h-2.4c-1.2,0-2.1.3-2.8.8s-1,1.3-1,2.3.3,1.6.9,2.2,1.5.8,2.6.8,2-.4,2.6-1.1v-.2,1h2v-5.2c0-1,0-1.8-.4-2.5h0ZM226.2,69.2c-.2.4-.5.7-.8.9s-.8.3-1.2.3-1,0-1.2-.3c-.3-.2-.5-.5-.5-.9s.2-.8.5-1,.9-.3,1.8-.3h1.7v.2c0,.4-.1.8-.3,1.2h0Z"/>
              <path class="cls-11" d="M236.5,62.5v5c0,.9-.2,1.6-.6,2.1s-1,.7-1.7.7-.8,0-1.1-.2c-.3-.2-.5-.5-.7-.9s-.3-1-.3-1.8v-4.9h-2.1v5.4c0,1.4.3,2.5,1,3.2s1.5,1.1,2.7,1.1,1.4-.2,1.9-.6c.4-.2.7-.6.9-1v1.3h2.1v-9.5h-2.1,0Z"/>
              <polygon class="cls-11" points="249.2 72 245.7 67.1 248.9 62.5 246.4 62.5 244.5 65.4 242.6 62.5 240.1 62.5 243.3 67.1 239.8 72 242.4 72 244.5 68.8 246.6 72 249.2 72"/>
              <path class="cls-11" d="M260.6,69.9c-.4.3-.8.4-1.4.4s-1,0-1.4-.3-.8-.6-1-1c-.2-.3-.3-.7-.3-1.1h7.1c0-1.1-.2-2.1-.6-2.9s-1-1.4-1.6-1.9c-.7-.4-1.4-.7-2.3-.7s-1.8.2-2.5.6-1.3,1-1.7,1.8-.6,1.6-.6,2.6.2,1.8.6,2.6c.4.8,1,1.3,1.7,1.8.7.4,1.5.6,2.5.6s1.4,0,1.9-.3c.6-.2,1-.5,1.5-.9.4-.4.8-.8,1-1.3l-2-.8c-.2.4-.5.7-.9,1h0v-.2ZM256.7,65.6c.2-.5.5-.8.9-1.1s.9-.4,1.4-.4,1,0,1.3.4c.4.3.6.7.8,1.2v.3h-4.7c0-.2,0-.3.1-.5h.2Z"/>
              <path class="cls-11" d="M272.6,63.3c-.6-.7-1.5-1.1-2.7-1.1s-1.4.2-1.9.6c-.4.2-.7.6-.9,1v-1.3h-2.1v9.5h2.1v-5c0-.9.2-1.6.6-2.1s.9-.7,1.6-.7.8,0,1.1.2c.3.2.5.4.7.9s.3,1,.3,1.8v4.9h2.1v-5.4c0-1.5-.3-2.5-.9-3.2h0Z"/>
              <path class="cls-11" d="M278.5,61.8c0-.6,0-1,.3-1.2.2-.2.5-.4.9-.4h.5c.2,0,.4,0,.6.2l.8-1.6c-.3-.2-.7-.3-1.1-.4s-.7-.2-1-.2c-1,0-1.8.3-2.3.8s-.8,1.3-.8,2.3v1h-1.6v1.8h1.6v7.8h2.1v-7.8h2.5v-1.8h-2.5v-.7h0v.2Z"/>
              <path class="cls-11" d="M289.8,64.3c-.3-.7-.8-1.2-1.4-1.5s-1.4-.5-2.3-.5-1.4,0-1.9.3c-.5.2-1,.5-1.3.9s-.6.8-.8,1.2l1.9.7c.2-.4.5-.7.9-.9s.7-.3,1.2-.3.9,0,1.2.3c.3.2.5.6.7,1,0,.2.1.5.2.8h-2.4c-1.2,0-2.1.3-2.8.8s-1,1.3-1,2.3.3,1.6.9,2.2,1.5.8,2.6.8,2-.4,2.6-1.1v-.2,1h2v-5.2c0-1,0-1.8-.4-2.5h0ZM287.8,69.2c-.2.4-.5.7-.8.9s-.8.3-1.2.3-1,0-1.2-.3c-.3-.2-.5-.5-.5-.9s.2-.8.5-1,.9-.3,1.8-.3h1.7v.2c0,.4-.1.8-.3,1.2h0Z"/>
              <path class="cls-11" d="M299.7,63.3c-.6-.7-1.5-1.1-2.7-1.1s-1.4.2-1.9.6c-.4.2-.7.6-.9,1v-1.3h-2.1v9.5h2.1v-5c0-.9.2-1.6.6-2.1s.9-.7,1.6-.7.8,0,1.1.2c.3.2.5.4.7.9s.3,1,.3,1.8v4.9h2.1v-5.4c0-1.5-.3-2.5-.9-3.2h0Z"/>
              <path class="cls-11" d="M307.5,69.9c-.2,0-.4.2-.5.3h-.4c-.4,0-.7,0-.9-.3s-.3-.6-.3-1v-4.6h2.6v-1.8h-2.6v-3h-2.1v3h-1.6v1.8h1.6v5c0,.9.3,1.7.8,2.2s1.3.8,2.3.8.7,0,1-.2.7-.3,1-.5l-.8-1.6h-.1Z"/>
              <path class="cls-11" d="M313.3,72.2c-.6,0-1.2,0-1.8-.3s-1-.5-1.4-.8-.7-.8-.9-1.2l1.8-.8c.2.3.5.7.9.9.4.2.8.4,1.2.4s.9,0,1.2-.3c.3-.2.5-.4.5-.7s-.1-.5-.3-.7-.5-.3-1-.4l-.9-.2c-.9-.2-1.6-.6-2.1-1.1s-.8-1.1-.8-1.7c0-.9.3-1.7.9-2.2s1.5-.8,2.6-.8,1.1,0,1.6.3c.5.2.9.4,1.3.7s.6.7.7,1.1l-1.8.8c-.1-.3-.4-.6-.7-.7-.4-.2-.8-.3-1.2-.3s-.8,0-1,.3-.4.4-.4.8.1.4.3.5.5.3.9.4l1.1.3c.6.2,1.1.4,1.5.7.4.3.7.7.9,1.1s.3.8.3,1.2-.2,1.1-.5,1.5-.8.8-1.3,1c-.6.2-1.2.3-1.9.3h.3Z"/>
              <path class="cls-11" d="M328.7,69.9c-.4.3-.8.4-1.4.4s-1,0-1.4-.3-.8-.6-1-1c-.2-.3-.3-.7-.3-1.1h7.1c0-1.1-.2-2.1-.6-2.9s-1-1.4-1.6-1.9c-.7-.4-1.4-.7-2.3-.7s-1.8.2-2.5.6-1.3,1-1.7,1.8-.6,1.6-.6,2.6.2,1.8.6,2.6c.4.8,1,1.3,1.7,1.8.7.4,1.5.6,2.5.6s1.4,0,1.9-.3c.6-.2,1-.5,1.5-.9.4-.4.8-.8,1-1.3l-2-.8c-.2.4-.5.7-.9,1h0v-.2ZM324.8,65.6c.2-.5.5-.8.9-1.1s.9-.4,1.4-.4,1,0,1.3.4c.4.3.6.7.8,1.2v.3h-4.7c0-.2,0-.3.1-.5h.2Z"/>
              <path class="cls-11" d="M338.1,69.9c-.2,0-.4.2-.5.3h-.4c-.4,0-.7,0-.9-.3s-.3-.6-.3-1v-4.6h2.6v-1.8h-2.6v-3h-2.1v3h-1.6v1.8h1.6v5c0,.9.3,1.7.8,2.2s1.3.8,2.3.8.7,0,1-.2.7-.3,1-.5l-.8-1.6h-.1Z"/>
              <path class="cls-11" d="M352.2,64.3c-.3-.7-.8-1.2-1.4-1.5s-1.4-.5-2.3-.5-1.4,0-1.9.3c-.5.2-1,.5-1.3.9s-.6.8-.8,1.2l1.9.7c.2-.4.5-.7.9-.9s.7-.3,1.2-.3.9,0,1.2.3c.3.2.5.6.7,1,0,.2.1.5.2.8h-2.4c-1.2,0-2.1.3-2.8.8s-1,1.3-1,2.3.3,1.6.9,2.2,1.5.8,2.6.8,2-.4,2.6-1.1v-.2,1h2v-5.2c0-1,0-1.8-.4-2.5h0ZM350.2,69.2c-.2.4-.5.7-.8.9s-.8.3-1.2.3-1,0-1.2-.3c-.3-.2-.5-.5-.5-.9s.2-.8.5-1,.9-.3,1.8-.3h1.7v.2c0,.4-.1.8-.3,1.2h0Z"/>
              <path class="cls-11" d="M360.6,62.5v5c0,.9-.2,1.6-.6,2.1s-1,.7-1.7.7-.8,0-1.1-.2c-.3-.2-.5-.5-.7-.9s-.3-1-.3-1.8v-4.9h-2.1v5.4c0,1.4.3,2.5,1,3.2s1.5,1.1,2.7,1.1,1.4-.2,1.9-.6c.4-.2.7-.6.9-1v1.3h2.1v-9.5h-2.1,0Z"/>
              <polygon class="cls-11" points="373.2 72 369.7 67.1 373 62.5 370.5 62.5 368.5 65.4 366.6 62.5 364.1 62.5 367.4 67.1 363.9 72 366.4 72 368.6 68.8 370.7 72 373.2 72"/>
              <path class="cls-11" d="M381.9,61.8c0-.6,0-1,.3-1.2.2-.2.5-.4.9-.4h.5c.2,0,.4,0,.6.2l.8-1.6c-.3-.2-.7-.3-1.1-.4s-.7-.2-1-.2c-1,0-1.8.3-2.3.8s-.8,1.3-.8,2.3v1h-1.6v1.8h1.6v7.8h2.1v-7.8h2.5v-1.8h-2.5v-.7h0v.2Z"/>
              <path class="cls-11" d="M393.2,64.3c-.3-.7-.8-1.2-1.4-1.5s-1.4-.5-2.3-.5-1.4,0-1.9.3c-.5.2-1,.5-1.3.9s-.6.8-.8,1.2l1.9.7c.2-.4.5-.7.9-.9s.7-.3,1.2-.3.9,0,1.2.3c.3.2.5.6.7,1,0,.2.1.5.2.8h-2.4c-1.2,0-2.1.3-2.8.8s-1,1.3-1,2.3.3,1.6.9,2.2,1.5.8,2.6.8,2-.4,2.6-1.1v-.2,1h2v-5.2c0-1,0-1.8-.4-2.5h0ZM391.2,69.2c-.2.4-.5.7-.8.9s-.8.3-1.2.3-1,0-1.2-.3c-.3-.2-.5-.5-.5-.9s.2-.8.5-1,.9-.3,1.8-.3h1.7v.2c0,.4-.1.8-.3,1.2h0Z"/>
              <path class="cls-11" d="M409.5,63.3c-.6-.7-1.5-1.1-2.7-1.1s-1.4.2-1.9.6-.9.9-1.2,1.6c-.1-.4-.4-.8-.6-1.1-.6-.7-1.5-1.1-2.7-1.1s-1.4.2-1.9.6c-.4.2-.7.6-.9,1v-1.3h-2.1v9.5h2.1v-5c0-.9.2-1.6.6-2.1s.9-.7,1.6-.7.8,0,1.1.2c.3.2.5.4.7.9s.3,1,.3,1.8v4.9h2.1v-5c0-.9.2-1.6.6-2.1s1-.7,1.7-.7.8,0,1.1.2.5.4.7.9c.2.4.3,1,.3,1.8v4.9h2.1v-5.4c0-1.5-.3-2.5-.9-3.2h-.1Z"/>
              <path class="cls-11" d="M413.6,60.7c-.3,0-.6,0-.9-.4-.2-.2-.4-.5-.4-.9s.1-.6.4-.9c.2-.2.5-.4.9-.4s.6,0,.9.4c.2.2.4.5.4.9s-.1.6-.4.9c-.2.2-.5.4-.9.4ZM412.5,72v-9.5h2.1v9.5h-2.1Z"/>
              <path class="cls-11" d="M416.9,72v-13.3h2.1v13.3h-2.1Z"/>
              <path class="cls-11" d="M421.2,72v-13.3h2.1v13.3h-2.1Z"/>
              <path class="cls-11" d="M431.4,69.9c-.4.3-.8.4-1.4.4s-1,0-1.4-.3c-.4-.2-.8-.6-1-1-.2-.3-.3-.7-.3-1.1h7.1c0-1.1-.2-2.1-.6-2.9s-1-1.4-1.6-1.9c-.7-.4-1.4-.7-2.3-.7s-1.8.2-2.5.6-1.3,1-1.7,1.8-.6,1.6-.6,2.6.2,1.8.6,2.6c.4.8,1,1.3,1.7,1.8.7.4,1.5.6,2.5.6s1.4,0,1.9-.3c.6-.2,1-.5,1.5-.9.4-.4.8-.8,1-1.3l-2-.8c-.2.4-.5.7-.9,1h0v-.2ZM427.5,65.6c.2-.5.5-.8.9-1.1s.9-.4,1.4-.4,1,0,1.3.4c.4.3.6.7.8,1.2v.3h-4.7c0-.2,0-.3.1-.5h.2Z"/>
              <path class="cls-11" d="M439.2,72.2c-.6,0-1.2,0-1.8-.3s-1-.5-1.4-.8-.7-.8-.9-1.2l1.8-.8c.2.3.5.7.9.9.4.2.8.4,1.2.4s.9,0,1.2-.3c.3-.2.5-.4.5-.7s-.1-.5-.3-.7c-.2-.2-.5-.3-1-.4l-.9-.2c-.9-.2-1.6-.6-2.1-1.1s-.8-1.1-.8-1.7c0-.9.3-1.7.9-2.2s1.5-.8,2.6-.8,1.1,0,1.6.3c.5.2.9.4,1.3.7s.6.7.7,1.1l-1.8.8c-.1-.3-.4-.6-.7-.7-.4-.2-.8-.3-1.2-.3s-.8,0-1,.3c-.2.2-.4.4-.4.8s.1.4.3.5c.2.2.5.3.9.4l1.1.3c.6.2,1.1.4,1.5.7.4.3.7.7.9,1.1s.3.8.3,1.2-.2,1.1-.5,1.5-.8.8-1.3,1c-.6.2-1.2.3-1.9.3h.3Z"/>
              <path class="cls-11" d="M455.6,58.7v5.2c-.3-.4-.6-.8-.9-1-.6-.4-1.3-.6-2.1-.6s-1.6.2-2.2.6-1.1,1-1.5,1.7-.5,1.6-.5,2.6.2,1.9.5,2.6c.4.8.9,1.3,1.5,1.7.6.4,1.4.6,2.2.6s1.5-.2,2.1-.6c.4-.3.7-.6,1-1v1.4h2.1v-13.3h-2.2ZM454.4,69.9c-.4.3-.8.4-1.3.4s-1,0-1.4-.4-.7-.6-.9-1.1-.3-1-.4-1.6c0-.6.1-1.1.4-1.6s.5-.8.9-1.1.8-.4,1.4-.4.9,0,1.3.4.7.6.9,1.1.3,1,.3,1.6-.1,1.1-.3,1.6-.5.8-.9,1.1h0Z"/>
              <path class="cls-11" d="M465.6,69.9c-.4.3-.8.4-1.4.4s-1,0-1.4-.3c-.4-.2-.8-.6-1-1-.2-.3-.3-.7-.3-1.1h7.2c0-1.1-.2-2.1-.6-2.9-.4-.8-1-1.4-1.6-1.9-.7-.4-1.4-.7-2.3-.7s-1.8.2-2.5.6-1.3,1-1.7,1.8-.6,1.6-.6,2.6.2,1.8.6,2.6c.4.8,1,1.3,1.7,1.8.7.4,1.5.6,2.5.6s1.4,0,1.9-.3c.6-.2,1-.5,1.5-.9.4-.4.8-.8,1-1.3l-2-.8c-.2.4-.5.7-.9,1h0v-.2ZM461.7,65.6c.2-.5.5-.8.9-1.1s.9-.4,1.4-.4,1,0,1.3.4.6.7.8,1.2v.3h-4.7c0-.2,0-.3.1-.5h.2Z"/>
              <polygon class="cls-11" points="483.8 58.7 483.8 64.2 477.1 64.2 477.1 58.7 474.9 58.7 474.9 72 477.1 72 477.1 66.2 483.8 66.2 483.8 72 486 72 486 58.7 483.8 58.7"/>
              <path class="cls-11" d="M495.9,64.3c-.3-.7-.8-1.2-1.4-1.5-.6-.3-1.4-.5-2.3-.5s-1.3,0-1.9.3c-.5.2-1,.5-1.3.9s-.6.8-.8,1.2l1.9.7c.2-.4.5-.7.8-.9s.7-.3,1.2-.3.9,0,1.2.3.5.6.7,1c0,.2,0,.5.2.8h-2.4c-1.2,0-2.1.3-2.8.8s-1,1.3-1,2.3.3,1.6.9,2.2,1.5.8,2.7.8,2-.4,2.6-1.1v-.2,1h2v-5.2c0-1,0-1.8-.4-2.5h0ZM493.9,69.2c-.2.4-.5.7-.8.9-.3.2-.8.3-1.2.3s-1,0-1.2-.3c-.3-.2-.5-.5-.5-.9s.2-.8.5-1,.9-.3,1.8-.3h1.7v.2c0,.4,0,.8-.3,1.2h0Z"/>
              <path class="cls-11" d="M512,63.3c-.6-.7-1.5-1.1-2.7-1.1s-1.4.2-1.9.6-.9.9-1.2,1.6c-.2-.4-.3-.8-.6-1.1-.6-.7-1.5-1.1-2.7-1.1s-1.4.2-1.9.6c-.4.2-.7.6-.9,1v-1.3h-2.1v9.5h2.1v-5c0-.9.2-1.6.6-2.1s.9-.7,1.7-.7.8,0,1.1.2.5.4.7.9.3,1,.3,1.8v4.9h2.1v-5c0-.9.2-1.6.6-2.1s1-.7,1.7-.7.8,0,1.1.2.5.4.7.9.3,1,.3,1.8v4.9h2.1v-5.4c0-1.5-.3-2.5-.9-3.2h-.2Z"/>
              <path class="cls-11" d="M516.1,60.7c-.3,0-.6,0-.9-.4-.2-.2-.4-.5-.4-.9s0-.6.4-.9c.2-.2.5-.4.9-.4s.6,0,.9.4c.2.2.4.5.4.9s0,.6-.4.9c-.2.2-.5.4-.9.4ZM515,72v-9.5h2.1v9.5h-2.1Z"/>
              <path class="cls-11" d="M519.5,72v-13.3h2.1v13.3h-2.1Z"/>
              <path class="cls-11" d="M528.7,69.9c-.2,0-.4.2-.5.3h-.4c-.4,0-.7,0-.9-.3s-.3-.6-.3-1v-4.6h2.6v-1.8h-2.6v-3h-2.1v3h-1.6v1.8h1.6v5c0,.9.3,1.7.8,2.2s1.3.8,2.3.8.7,0,1-.2.7-.3,1-.5l-.8-1.6h0Z"/>
              <path class="cls-11" d="M535.2,72.2c-1,0-1.8-.2-2.5-.6s-1.3-1-1.7-1.8-.6-1.6-.6-2.6.2-1.8.6-2.6c.4-.8,1-1.3,1.7-1.8.7-.4,1.6-.6,2.5-.6s1.8.2,2.5.6,1.3,1,1.7,1.8.6,1.6.6,2.6-.2,1.8-.6,2.6c-.4.8-1,1.3-1.7,1.8-.7.4-1.6.6-2.5.6h0ZM535.2,70.3c.5,0,1,0,1.4-.4s.7-.6.9-1.1.3-1,.3-1.6,0-1.1-.3-1.6c-.2-.4-.5-.8-1-1.1-.4-.3-.9-.4-1.4-.4s-1,0-1.4.4-.7.6-1,1.1c-.2.4-.3,1-.3,1.6s0,1.1.3,1.6.6.8,1,1.1c.4.3.9.4,1.4.4h0Z"/>
              <path class="cls-11" d="M549.2,63.3c-.6-.7-1.5-1.1-2.7-1.1s-1.4.2-1.9.6c-.4.2-.7.6-.9,1v-1.3h-2.1v9.5h2.1v-5c0-.9.2-1.6.6-2.1s.9-.7,1.7-.7.8,0,1.1.2.5.4.7.9.3,1,.3,1.8v4.9h2.1v-5.4c0-1.5-.3-2.5-.9-3.2h0Z"/>
            </g>
          </g>
        </g>
      </g>
    </g>
  </g>
</svg>