<?xml version="1.0" standalone="no"?>
<!DOCTYPE svg PUBLIC "-//W3C//DTD SVG 20010904//EN"
 "http://www.w3.org/TR/2001/REC-SVG-20010904/DTD/svg10.dtd">
<svg version="1.0" xmlns="http://www.w3.org/2000/svg"
 width="316.000000pt" height="316.000000pt" viewBox="0 0 316.000000 316.000000"
 preserveAspectRatio="xMidYMid meet">
<metadata>
Created by potrace 1.11, written by Peter Selinger 2001-2013
</metadata>
<g transform="translate(0.000000,316.000000) scale(0.100000,-0.100000)"
fill="#000000" stroke="none">
<path d="M1212 2922 c-28 -28 -32 -95 -5 -90 22 4 42 56 34 88 l-7 24 -22 -22z"/>
<path d="M1663 2852 c-24 -33 -41 -81 -36 -104 6 -23 35 -32 45 -14 5 8 15 22
24 30 9 10 14 30 12 56 -3 55 -19 67 -45 32z"/>
<path d="M1427 2862 c-13 -26 16 -92 41 -92 21 0 25 26 8 58 -15 29 -42 48
-49 34z"/>
<path d="M1053 2853 c-19 -7 5 -60 35 -81 15 -10 40 -19 55 -20 25 -2 28 1 22
21 -14 45 -78 91 -112 80z"/>
<path d="M2086 2813 c-16 -24 -28 -57 -29 -82 -2 -37 -1 -40 18 -35 28 9 45
24 45 40 0 8 5 14 10 14 15 0 12 63 -4 85 -13 17 -15 16 -40 -22z"/>
<path d="M1266 2793 c-14 -15 -27 -32 -27 -38 -6 -52 -4 -76 5 -84 26 -21 70
42 68 98 -2 50 -15 57 -46 24z"/>
<path d="M1963 2790 c-18 -11 -35 -30 -39 -44 -3 -13 -18 -29 -33 -35 -25 -11
-46 -27 -113 -87 -50 -43 -93 -125 -103 -192 -2 -13 -5 -26 -8 -28 -10 -10
-39 84 -42 133 -2 28 -6 56 -9 62 -4 5 -2 12 4 16 6 4 8 10 5 15 -2 4 0 22 6
40 8 21 8 34 2 39 -6 3 -15 16 -22 28 -6 13 -25 30 -41 38 -28 14 -30 14 -30
-3 0 -24 38 -65 55 -58 13 5 28 -28 17 -39 -10 -9 -15 -47 -15 -110 -1 -77 8
-115 39 -176 20 -40 26 -69 29 -142 2 -51 7 -112 10 -137 l6 -45 -43 43 c-24
23 -47 42 -50 42 -13 0 -56 46 -76 81 -14 26 -19 52 -18 97 1 33 5 64 9 68 10
10 9 34 -2 34 -8 0 -16 -20 -28 -70 -10 -44 -12 -83 -4 -98 19 -39 -2 -40 -30
-2 -16 22 -32 40 -37 41 -4 0 -15 2 -25 4 -16 3 -17 -1 -12 -28 10 -46 44 -75
84 -72 26 2 34 -2 41 -21 5 -12 19 -28 31 -34 63 -34 126 -119 133 -180 4 -39
-21 -89 -74 -147 l-35 -38 -6 40 c-14 82 -36 128 -94 188 -27 29 -81 134 -93
184 -4 15 -7 66 -7 113 1 104 30 177 100 247 79 79 99 142 61 193 -14 19 -17
20 -11 5 24 -65 0 -123 -79 -192 -25 -21 -56 -57 -69 -81 l-24 -44 -8 39 c-4
21 -11 43 -17 50 -6 8 -2 15 14 24 13 7 28 19 35 28 13 16 11 76 -1 89 -9 8
-36 -26 -36 -45 0 -7 -4 -13 -10 -13 -5 0 -7 -13 -3 -30 3 -16 2 -30 -3 -30
-10 1 -84 126 -87 149 -1 9 -6 21 -10 28 -4 6 -2 13 5 15 8 3 6 7 -4 11 -13 4
-16 1 -13 -14 2 -10 0 -19 -6 -19 -5 0 -6 -7 0 -17 101 -203 114 -238 115
-298 1 -61 -18 -121 -41 -130 -7 -2 -29 5 -48 16 -39 23 -48 59 -16 59 11 0
31 14 44 31 24 30 25 38 15 107 -6 48 -77 -50 -72 -100 5 -41 -13 -25 -19 18
-8 52 -30 104 -44 104 -11 0 -10 -7 2 -31 9 -16 18 -53 21 -82 3 -28 7 -54 10
-58 2 -4 0 -10 -5 -14 -23 -14 -144 81 -182 141 -23 38 -45 110 -43 142 1 17
-2 20 -12 11 -19 -16 -11 -88 17 -145 31 -65 111 -142 184 -178 132 -66 158
-87 184 -157 21 -57 40 -95 102 -205 20 -37 33 -104 20 -104 -6 0 -16 9 -23
19 -14 20 -100 70 -128 74 -8 2 -21 6 -27 10 -7 5 -17 6 -22 2 -17 -10 -23 15
-25 94 -2 64 -7 86 -29 124 -15 25 -39 55 -54 67 -34 26 -92 52 -103 45 -5 -3
-11 1 -13 7 -4 10 -6 10 -6 1 -1 -7 -9 -10 -18 -7 -23 6 11 -10 55 -26 93 -35
146 -141 124 -250 -13 -60 -73 -51 -139 20 -48 51 -125 213 -139 290 -3 14 -9
39 -14 55 -5 17 -11 47 -14 68 -4 21 -12 50 -20 65 -14 27 -63 81 -75 83 -3 0
-14 2 -23 4 -10 2 -18 -1 -18 -6 0 -5 6 -9 13 -9 36 0 99 -108 95 -163 0 -12
5 -42 12 -67 6 -25 14 -56 17 -70 2 -13 9 -30 15 -37 12 -15 12 -15 -19 -18
-13 -1 -23 1 -23 5 0 4 -6 7 -12 7 -47 0 -150 79 -200 151 -17 26 -43 57 -56
70 -13 13 -22 26 -19 29 7 7 -21 65 -37 75 -18 12 -23 9 -28 -17 -3 -14 -1
-25 3 -25 5 0 9 -7 9 -15 0 -9 11 -21 25 -27 14 -6 25 -17 25 -24 0 -7 4 -14
8 -16 5 -1 29 -35 55 -73 25 -39 56 -79 69 -90 42 -37 89 -67 113 -73 14 -4
25 -11 25 -17 0 -12 -20 -14 -123 -15 -68 0 -86 4 -150 34 -39 19 -81 36 -92
38 -11 2 -20 10 -21 18 -1 8 -2 21 -2 28 -2 15 -39 52 -53 52 -13 0 -5 -58 10
-73 16 -16 13 -37 -5 -37 -8 0 -12 -5 -9 -10 5 -8 11 -7 21 1 8 6 21 8 31 4
10 -5 24 -9 32 -11 7 -1 51 -22 97 -45 87 -44 120 -49 244 -37 25 2 56 1 70
-4 23 -8 70 -66 70 -87 0 -4 10 -20 21 -35 24 -30 20 -43 -8 -28 -46 24 -178
-8 -229 -57 -18 -17 -20 -17 -61 0 -54 23 -123 42 -145 41 -13 -1 -18 7 -18
27 0 27 -33 81 -50 81 -13 0 -18 -36 -7 -56 6 -10 18 -24 26 -31 13 -9 4 -12
-44 -12 -64 1 -155 -18 -155 -32 0 -15 21 -21 36 -8 16 13 130 18 187 6 53
-10 167 -63 167 -78 0 -30 -116 -109 -140 -94 -5 3 -11 1 -14 -4 -6 -9 -84 -6
-118 5 -10 3 -23 2 -28 -1 -17 -10 8 -34 30 -30 11 2 22 0 25 -5 8 -14 153 -9
184 6 15 8 61 48 102 90 123 126 163 136 295 72 55 -26 100 -41 140 -44 70 -7
105 -22 159 -70 l40 -35 -30 7 c-50 11 -116 4 -192 -21 -96 -33 -180 -19 -240
37 -13 12 -23 18 -23 13 0 -4 -9 0 -20 10 -24 21 -81 30 -91 13 -12 -19 25
-38 63 -34 24 3 39 -2 55 -17 32 -29 29 -34 -20 -39 -32 -4 -54 -15 -86 -45
-25 -23 -41 -45 -37 -52 11 -17 64 15 68 41 2 18 13 24 61 34 31 6 57 8 57 4
0 -5 9 -6 20 -3 11 3 28 2 37 -2 10 -5 24 -7 31 -6 27 4 9 -18 -49 -60 -34
-24 -64 -44 -68 -45 -3 0 -17 -5 -31 -11 -37 -15 -115 -6 -163 19 -23 12 -57
28 -75 34 -45 16 -146 11 -166 -9 -14 -14 -9 -15 51 -13 69 3 120 -9 150 -36
35 -30 85 -49 139 -52 53 -3 77 4 159 47 65 33 80 42 85 47 3 3 18 11 33 18
l29 12 -6 -45 c-8 -58 -22 -88 -68 -152 -36 -50 -95 -103 -114 -103 -5 0 -29
-18 -54 -40 l-45 -39 -3 27 c-2 15 -8 33 -14 39 -6 7 -8 19 -5 26 8 21 -8 41
-24 31 -8 -5 -25 -10 -39 -12 -33 -4 -74 -34 -79 -58 -2 -10 -15 -28 -29 -40
-39 -34 -5 -83 39 -56 24 15 27 8 27 -65 -1 -70 6 -83 67 -121 41 -26 86 -40
145 -47 19 -2 62 -10 94 -19 47 -13 62 -13 68 -3 16 25 7 36 -39 43 -68 10
-116 32 -109 49 3 10 -3 17 -19 21 -29 7 -31 16 -10 34 8 7 15 19 15 28 0 21
37 67 119 149 98 99 141 187 157 326 3 23 7 45 10 49 7 12 102 10 109 -2 4 -6
10 -8 14 -5 14 8 69 -52 95 -103 13 -26 27 -66 31 -88 4 -21 9 -46 12 -54 19
-51 31 -300 19 -370 -3 -14 -7 -43 -9 -65 -6 -48 -47 -206 -57 -220 -5 -5 -10
-19 -12 -30 -3 -19 3 -20 215 -21 119 0 217 1 217 3 0 2 -10 22 -21 45 -12 23
-30 69 -41 102 -37 113 -43 158 -43 326 0 80 6 167 13 195 7 28 13 62 14 78 1
15 5 27 8 27 3 0 6 8 7 18 4 44 44 113 83 141 36 26 49 29 98 27 72 -3 67 -2
188 -63 109 -54 148 -67 204 -65 103 4 160 24 220 78 32 29 39 32 50 19 15
-18 74 -30 97 -20 10 5 24 7 32 6 19 -3 8 20 -20 41 -27 20 -69 31 -69 19 0
-10 -35 -23 -67 -25 -12 0 -31 -8 -41 -16 -56 -45 -103 -49 -62 -5 17 18 21
33 18 71 l-3 48 -32 -29 c-36 -33 -48 -82 -26 -103 19 -20 16 -29 -11 -34 -68
-13 -160 8 -202 46 -7 6 -29 22 -48 36 -20 14 -36 30 -36 35 0 6 22 11 49 11
27 1 58 5 68 9 10 4 24 9 31 11 17 3 42 24 42 34 0 9 -15 7 -44 -5 -10 -5 -28
-9 -40 -9 -12 -1 -25 -4 -31 -7 -11 -7 -107 -3 -140 4 -11 3 -42 13 -69 22
-48 16 -112 17 -149 1 -29 -13 -10 19 21 35 15 8 30 17 33 22 3 4 49 14 103
22 76 11 111 23 162 51 49 27 72 35 99 31 52 -7 117 -50 200 -132 65 -63 82
-75 120 -81 42 -6 121 -1 170 10 11 2 23 5 28 5 4 1 7 7 7 15 0 10 -19 13 -79
13 -61 0 -88 5 -122 23 -45 23 -94 73 -85 88 3 5 31 17 63 28 32 10 60 21 63
24 3 3 34 5 70 4 92 -1 94 -2 81 -17 -15 -19 -5 -57 21 -83 27 -26 78 -42 78
-25 0 27 -30 81 -54 96 -35 23 -33 36 5 23 21 -7 34 -7 41 0 22 22 -87 50
-179 46 -47 -3 -51 -1 -45 16 15 40 65 90 108 106 24 9 44 23 44 30 0 18 -14
18 -53 -2 -58 -30 -93 -63 -120 -113 -25 -45 -31 -50 -97 -71 l-71 -23 -22 20
c-62 57 -185 101 -221 81 -20 -11 -21 2 -1 28 8 10 15 27 15 36 0 27 46 51
100 52 28 1 50 0 50 -3 0 -6 9 -7 80 -10 48 -3 55 0 135 41 58 29 107 43 168
47 4 1 7 7 7 14 0 8 -11 12 -27 11 -41 -1 -106 -15 -118 -24 -5 -5 -13 -9 -18
-9 -4 0 -21 -8 -38 -16 -29 -16 -121 -19 -144 -6 -10 6 -17 8 -37 10 -7 1 10
14 37 30 48 27 82 57 85 73 2 14 31 73 55 113 27 45 30 55 15 55 -6 0 -25 -21
-43 -47 -73 -106 -118 -143 -218 -178 l-37 -13 8 28 c5 16 11 34 14 39 3 5 9
49 12 98 7 106 23 143 75 179 41 28 51 45 22 37 -55 -14 -131 -96 -139 -149
-1 -5 -5 -31 -8 -57 -7 -52 -40 -146 -76 -218 -57 -114 -174 -225 -207 -197
-8 6 -12 20 -10 30 3 10 1 21 -4 24 -11 6 -3 52 16 99 19 44 58 84 114 113 32
17 62 28 67 24 4 -4 4 -1 0 5 -10 18 -46 9 -121 -29 -44 -23 -78 -57 -103
-103 -22 -42 -24 -51 -24 -122 0 -66 2 -64 -50 -67 -7 0 -30 -6 -50 -12 -29
-10 -37 -10 -42 1 -2 7 -2 16 2 20 3 3 7 53 8 111 0 71 5 108 13 113 7 4 11
12 9 17 -9 32 108 154 167 174 6 2 15 7 20 12 6 4 46 32 90 61 44 30 96 75
116 100 42 57 65 115 51 129 -7 7 -19 -8 -38 -46 -26 -54 -80 -113 -137 -149
-31 -20 -35 -15 -38 43 -3 67 1 87 26 125 15 20 24 40 21 43 -9 8 -36 -19 -52
-54 -9 -19 -21 -34 -27 -34 -6 0 -7 3 -4 6 9 10 -25 65 -38 61 -5 -2 -11 -18
-12 -35 -1 -34 21 -67 39 -56 7 4 8 2 4 -4 -4 -7 -3 -12 3 -12 5 0 8 -15 7
-32 -2 -18 0 -43 5 -54 7 -19 0 -26 -64 -57 -79 -39 -152 -97 -162 -127 -4
-11 -11 -20 -17 -20 -9 0 -6 156 4 200 11 48 64 133 107 171 71 64 102 89 112
90 5 1 13 2 18 3 17 2 46 40 48 64 3 27 -3 27 -44 2z m-858 -1187 c-7 -118
-55 -224 -137 -305 -32 -32 -67 -58 -78 -58 -19 0 -19 1 2 38 12 20 38 55 58
77 79 87 120 167 120 233 0 28 17 55 30 47 4 -2 6 -17 5 -32z m-275 -462 c0
-12 -29 -41 -40 -41 -14 0 -22 19 -16 35 6 16 56 21 56 6z"/>
<path d="M936 2767 c-18 -24 -26 -46 -26 -75 0 -23 4 -42 9 -42 49 0 87 78 65
134 -9 24 -20 20 -48 -17z"/>
<path d="M1190 2781 c0 -6 4 -12 8 -15 5 -3 9 1 9 9 0 8 -4 15 -9 15 -4 0 -8
-4 -8 -9z"/>
<path d="M1766 2748 c13 -42 60 -70 71 -41 4 10 -3 24 -21 40 -35 30 -60 31
-50 1z"/>
<path d="M2268 2751 c-30 -15 -74 -67 -61 -73 5 -2 23 -5 41 -7 26 -2 40 5 67
32 19 19 35 42 35 50 0 19 -41 18 -82 -2z m26 -36 c-4 -8 -11 -15 -16 -15 -6
0 -5 6 2 15 7 8 14 15 16 15 2 0 1 -7 -2 -15z"/>
<path d="M1368 2718 c4 -41 42 -108 62 -108 8 0 22 31 25 55 3 29 -49 95 -75
95 -12 0 -15 -9 -12 -42z m56 -33 c3 -8 1 -15 -4 -15 -6 0 -10 7 -10 15 0 8 2
15 4 15 2 0 6 -7 10 -15z"/>
<path d="M1668 2670 c-23 -25 -39 -80 -23 -80 16 0 55 26 55 37 0 7 4 13 8 13
12 0 8 53 -3 57 -6 1 -22 -11 -37 -27z"/>
<path d="M2442 2675 c-29 -24 -47 -71 -31 -81 16 -10 77 25 103 58 14 19 26
38 26 41 0 18 -71 5 -98 -18z m28 -19 c0 -2 -7 -9 -15 -16 -13 -11 -14 -10 -9
4 5 14 24 23 24 12z"/>
<path d="M752 2656 c-2 -31 41 -77 82 -86 31 -7 36 -5 36 11 0 27 -50 78 -85
88 -27 7 -31 6 -33 -13z m63 -44 c-3 -3 -11 0 -18 7 -9 10 -8 11 6 5 10 -3 15
-9 12 -12z"/>
<path d="M1090 2637 c0 -35 7 -51 34 -83 30 -34 34 -36 39 -19 18 60 16 75
-17 110 -44 46 -56 45 -56 -8z m47 -39 c-3 -8 -6 -5 -6 6 -1 11 2 17 5 13 3
-3 4 -12 1 -19z"/>
<path d="M543 2631 c6 -14 20 -34 31 -43 24 -20 96 -24 96 -6 0 16 -60 68 -80
69 -8 1 -25 3 -37 4 -19 2 -20 0 -10 -24z"/>
<path d="M2045 2636 c-33 -33 -31 -46 5 -42 32 4 56 19 70 46 15 28 -46 25
-75 -4z"/>
<path d="M2299 2636 c-24 -25 -37 -76 -19 -76 18 0 60 48 60 69 0 31 -16 33
-41 7z"/>
<path d="M983 2633 c-19 -7 3 -46 37 -65 22 -12 31 -14 39 -5 18 22 -46 81
-76 70z"/>
<path d="M1505 2570 c-12 -22 -15 -46 -12 -72 7 -51 13 -56 39 -31 27 28 32
86 8 115 l-17 22 -18 -34z"/>
<path d="M1830 2573 c-28 -6 -73 -50 -65 -64 4 -5 19 -9 34 -9 30 0 81 42 81
66 0 14 -6 15 -50 7z"/>
<path d="M2185 2541 c-7 -35 10 -82 28 -75 7 2 14 21 15 42 2 27 -3 40 -17 49
-17 11 -20 9 -26 -16z"/>
<path d="M2385 2542 c-31 -6 -37 -17 -18 -34 28 -25 103 -28 103 -5 0 17 -59
44 -85 39z"/>
<path d="M2544 2525 c-7 -30 2 -75 16 -75 18 0 32 52 21 77 -14 30 -29 29 -37
-2z"/>
<path d="M1095 2530 c3 -5 8 -10 11 -10 2 0 4 5 4 10 0 6 -5 10 -11 10 -5 0
-7 -4 -4 -10z"/>
<path d="M582 2500 c-16 -27 -15 -65 3 -80 9 -8 15 -8 15 -2 0 6 7 17 14 25
10 10 13 23 7 43 -9 35 -23 40 -39 14z"/>
<path d="M1009 2513 c0 -5 -2 -18 -3 -30 -5 -47 103 -107 118 -67 3 8 2 14 -3
14 -4 0 -13 11 -19 25 -11 23 -91 74 -93 58z"/>
<path d="M666 2459 c-25 -29 -31 -50 -26 -94 3 -26 5 -28 29 -20 36 11 51 61
42 135 -2 18 -19 10 -45 -21z"/>
<path d="M2309 2488 c-9 -30 0 -64 24 -90 33 -34 42 -31 39 17 -2 19 2 35 8
35 5 0 10 -7 10 -16 0 -8 4 -13 9 -10 5 4 11 1 13 -5 2 -7 15 -9 35 -5 19 5
30 12 27 20 -6 16 -64 50 -64 37 0 -6 -6 -8 -14 -5 -8 3 -17 1 -21 -5 -10 -17
-23 -13 -30 9 -5 16 -32 29 -36 18z"/>
<path d="M1750 2466 c0 -26 34 -57 69 -62 37 -6 39 6 9 40 -29 32 -78 46 -78
22z"/>
<path d="M1421 2465 c1 -5 -2 -19 -6 -29 -9 -20 12 -68 30 -70 21 -2 17 63 -5
86 -12 13 -20 19 -19 13z"/>
<path d="M2077 2434 c-25 -14 -35 -38 -13 -34 5 1 13 -4 17 -12 7 -10 9 -10 9
0 0 7 4 11 8 8 12 -7 52 22 52 37 0 18 -40 18 -73 1z"/>
<path d="M414 2418 c-9 -14 24 -58 52 -68 34 -13 71 -13 80 1 11 19 -48 67
-89 72 -20 3 -40 1 -43 -5z"/>
<path d="M1727 2417 c-6 -19 13 -67 27 -67 21 0 25 10 14 40 -10 31 -34 46
-41 27z"/>
<path d="M2566 2403 l-29 -16 24 -18 c13 -10 26 -14 27 -8 2 5 8 7 13 4 13 -9
49 14 49 30 0 8 -6 15 -14 15 -8 0 -20 2 -28 4 -7 2 -26 -3 -42 -11z"/>
<path d="M1553 2372 c-35 -32 -50 -82 -24 -82 23 0 61 28 61 45 0 7 6 16 13
18 9 4 9 6 0 6 -7 1 -10 7 -7 15 10 26 -13 25 -43 -2z"/>
<path d="M897 2383 c-14 -13 -6 -61 13 -83 33 -38 52 8 25 60 -15 30 -26 36
-38 23z"/>
<path d="M2299 2389 c-10 -34 -4 -61 18 -84 21 -20 28 -23 34 -12 9 16 7 36
-6 57 -11 16 -44 45 -46 39z"/>
<path d="M2109 2367 c-23 -18 -49 -59 -49 -78 0 -13 6 -16 22 -11 29 7 57 41
58 69 0 27 -11 35 -31 20z"/>
<path d="M735 2320 c-4 -7 1 -19 11 -28 23 -20 64 -28 64 -12 0 28 -62 60 -75
40z"/>
<path d="M2622 2310 c-34 -21 -52 -48 -52 -79 0 -25 1 -25 37 -9 32 15 42 24
65 59 28 43 0 59 -50 29z m8 -30 c0 -5 -5 -10 -11 -10 -5 0 -7 5 -4 10 3 6 8
10 11 10 2 0 4 -4 4 -10z"/>
<path d="M1940 2305 c0 -17 32 -41 54 -41 28 1 31 23 4 37 -30 17 -58 19 -58
4z"/>
<path d="M2491 2281 c-13 -25 -21 -54 -19 -75 2 -42 6 -43 40 -16 28 22 43 82
27 111 -14 27 -23 24 -48 -20z"/>
<path d="M1870 2263 c-7 -16 -12 -32 -11 -38 2 -5 4 -17 5 -24 7 -41 55 -1 51
42 -1 12 -3 28 -4 35 -2 22 -27 13 -41 -15z"/>
<path d="M523 2249 c3 -42 78 -86 120 -70 16 6 15 10 -11 39 -16 18 -39 35
-51 37 -11 3 -30 7 -40 9 -15 3 -19 -1 -18 -15z m62 -37 c-3 -3 -11 0 -18 7
-9 10 -8 11 6 5 10 -3 15 -9 12 -12z"/>
<path d="M1576 2248 c-19 -26 -21 -54 -5 -64 16 -10 40 19 44 54 5 38 -16 43
-39 10z"/>
<path d="M921 2242 c-18 -6 -13 -29 9 -35 23 -6 56 16 46 31 -6 10 -30 12 -55
4z"/>
<path d="M233 2215 c-33 -25 29 -56 69 -34 23 12 17 24 -21 37 -22 8 -34 7
-48 -3z"/>
<path d="M1165 2220 c-9 -15 3 -45 25 -65 20 -18 20 -17 20 16 0 35 -32 70
-45 49z"/>
<path d="M1796 2208 c-27 -23 -45 -81 -28 -92 14 -8 59 40 67 71 9 39 -8 48
-39 21z"/>
<path d="M2768 2215 c-33 -18 -37 -45 -8 -45 11 0 20 -5 20 -11 0 -10 12 -9
65 4 6 1 21 10 35 20 18 12 21 20 13 28 -19 19 -95 21 -125 4z"/>
<path d="M995 2194 c-24 -26 -34 -64 -16 -64 17 0 51 35 56 57 6 34 -12 37
-40 7z"/>
<path d="M2021 2194 c-21 -21 -21 -23 -4 -32 10 -4 23 -8 28 -7 19 3 65 28 65
37 0 4 -1 8 -3 8 -1 0 -16 4 -33 9 -25 7 -34 5 -53 -15z"/>
<path d="M389 2162 c-26 -3 -96 -59 -86 -68 3 -3 22 -7 44 -10 31 -3 43 1 66
21 15 14 27 30 27 35 0 6 1 13 3 17 3 8 -19 10 -54 5z"/>
<path d="M1050 2141 c-15 -38 -17 -56 -6 -98 9 -38 16 -40 40 -14 28 31 29 86
3 117 l-23 27 -14 -32z"/>
<path d="M1230 2118 c-24 -32 -33 -98 -16 -115 4 -5 20 6 36 24 22 25 27 39
24 69 -5 53 -17 59 -44 22z"/>
<path d="M2561 2131 l-23 -18 30 -12 c35 -15 92 -6 92 13 0 19 -51 40 -60 25
-5 -7 -9 -8 -11 -1 -3 7 -13 4 -28 -7z"/>
<path d="M1440 2120 c-12 -7 -11 -12 5 -31 30 -32 59 -40 101 -26 35 13 36 14
19 31 -33 33 -94 46 -125 26z"/>
<path d="M1969 2097 c-28 -27 -38 -61 -21 -71 14 -8 87 31 102 55 23 39 20 47
-17 46 -25 -1 -44 -10 -64 -30z m51 -2 c0 -2 -10 -9 -22 -15 -22 -11 -22 -10
-4 4 21 17 26 19 26 11z"/>
<path d="M2772 2122 c-16 -5 24 -52 45 -52 7 0 13 -4 13 -9 0 -10 22 -8 61 4
26 9 24 19 -8 41 -27 17 -83 26 -111 16z"/>
<path d="M1791 2086 c-27 -29 -41 -83 -30 -114 9 -23 9 -23 33 -5 28 21 38 45
38 91 0 47 -14 57 -41 28z"/>
<path d="M2249 2079 c-13 -8 10 -59 27 -59 7 0 14 -4 16 -9 4 -12 58 -20 82
-11 18 6 17 9 -11 38 -17 18 -38 32 -47 32 -9 0 -16 4 -16 8 0 9 -36 10 -51 1z"/>
<path d="M2421 2076 c-25 -30 35 -101 79 -94 18 3 18 5 3 36 -9 18 -28 41 -43
52 -23 17 -30 17 -39 6z"/>
<path d="M487 2073 c-16 -25 52 -131 85 -133 12 0 20 39 12 62 -13 43 -83 94
-97 71z m61 -68 c-3 -3 -9 2 -12 12 -6 14 -5 15 5 6 7 -7 10 -15 7 -18z"/>
<path d="M716 2048 c17 -54 90 -81 131 -47 10 9 8 15 -11 30 -13 11 -29 19
-35 19 -6 0 -11 4 -11 8 0 4 -18 9 -41 10 -38 3 -40 1 -33 -20z"/>
<path d="M225 2023 c8 -19 15 -37 15 -39 0 -2 7 -4 15 -4 8 0 15 -4 15 -8 0
-10 68 -8 78 3 4 4 -11 22 -32 41 -22 19 -41 32 -43 30 -3 -2 -18 0 -34 4
l-29 9 15 -36z"/>
<path d="M2683 2035 c-10 -7 -16 -15 -13 -17 59 -47 89 -61 74 -35 -5 9 -4 9
6 0 9 -8 19 -9 36 -1 30 14 30 22 1 41 -34 22 -83 27 -104 12z"/>
<path d="M1275 2011 c-3 -6 -1 -11 6 -11 8 0 8 -4 1 -13 -8 -10 -5 -20 14 -41
44 -47 65 -12 25 43 -20 29 -37 36 -46 22z"/>
<path d="M1566 1967 c-40 -68 -13 -134 31 -74 22 30 29 70 17 101 -10 25 -21
19 -48 -27z"/>
<path d="M642 1989 c-13 -5 -21 -13 -18 -18 9 -14 66 -32 66 -20 0 6 4 8 9 5
5 -3 14 0 20 8 8 10 5 15 -15 24 -29 14 -31 14 -62 1z"/>
<path d="M350 1910 c0 -6 -3 -9 -7 -8 -17 4 -52 -14 -59 -30 -11 -26 -13 -42
-6 -43 4 0 15 -2 24 -4 22 -4 76 32 96 65 9 14 12 22 8 18 -4 -4 -19 -3 -32 2
-15 6 -24 6 -24 0z m-10 -34 c0 -2 -7 -7 -16 -10 -8 -3 -12 -2 -9 4 6 10 25
14 25 6z"/>
<path d="M428 1883 c-28 -33 -36 -56 -28 -79 5 -12 6 -25 3 -28 -4 -3 1 -6 10
-6 24 0 67 62 67 98 0 24 -4 32 -18 32 -11 0 -26 -8 -34 -17z m15 -38 c-3 -9
-8 -14 -10 -11 -3 3 -2 9 2 15 9 16 15 13 8 -4z"/>
<path d="M2657 1882 c-18 -20 -17 -66 2 -85 19 -19 45 63 27 88 -11 15 -13 15
-29 -3z"/>
<path d="M2847 1879 c6 -23 58 -65 79 -63 8 1 25 2 39 3 35 1 31 21 -12 54
-47 35 -114 39 -106 6z m58 -19 c3 -5 1 -10 -4 -10 -6 0 -11 5 -11 10 0 6 2
10 4 10 3 0 8 -4 11 -10z"/>
<path d="M2575 1878 c-29 -15 -45 -39 -45 -65 0 -42 45 -22 73 33 22 42 11 54
-28 32z"/>
<path d="M2233 1855 c-33 -23 -49 -55 -32 -66 10 -6 11 -9 2 -9 -7 0 -13 -4
-13 -10 0 -20 37 -9 63 18 49 51 33 104 -20 67z m17 -29 c0 -2 -8 -10 -17 -17
-16 -13 -17 -12 -4 4 13 16 21 21 21 13z"/>
<path d="M821 1838 c-6 -16 -4 -33 6 -52 15 -28 16 -29 29 -11 17 22 17 26 4
59 -12 32 -28 33 -39 4z"/>
<path d="M2099 1827 c-24 -16 -34 -31 -36 -54 -2 -25 1 -30 15 -26 24 6 44 24
64 55 14 21 15 28 4 37 -10 8 -22 5 -47 -12z"/>
<path d="M910 1808 c0 -38 41 -80 83 -84 20 -3 37 -3 37 -1 0 19 -39 73 -64
88 -41 25 -56 24 -56 -3z m65 -48 c10 -11 16 -20 13 -20 -3 0 -13 9 -23 20
-10 11 -16 20 -13 20 3 0 13 -9 23 -20z"/>
<path d="M1912 1803 c2 -10 9 -19 16 -19 6 -1 14 -3 17 -4 13 -7 32 -5 49 3
19 9 19 10 1 23 -10 8 -34 14 -53 14 -26 0 -33 -4 -30 -17z"/>
<path d="M1073 1802 c-24 -8 -20 -22 11 -39 19 -10 76 3 76 18 0 6 -60 32 -64
28 -1 -1 -11 -4 -23 -7z"/>
<path d="M2315 1764 c-28 -28 -28 -34 1 -38 20 -3 64 31 64 51 0 22 -38 15
-65 -13z"/>
<path d="M2793 1743 c-39 -20 -51 -33 -30 -33 9 0 17 -4 17 -9 0 -18 57 -22
93 -8 39 17 54 34 40 48 -16 16 -91 17 -120 2z"/>
<path d="M645 1720 c-7 -12 12 -31 33 -33 12 -1 22 -5 22 -9 0 -11 -36 -28
-44 -21 -3 3 -6 -1 -6 -11 0 -13 4 -15 19 -6 11 5 23 15 26 20 4 6 11 8 16 5
5 -4 14 6 21 20 10 22 9 28 -3 36 -15 9 -78 9 -84 -1z"/>
<path d="M2265 1692 c-28 -6 -76 -58 -69 -76 11 -29 98 4 119 44 13 26 13 28
-8 32 -12 2 -31 2 -42 0z m5 -26 c0 -2 -8 -10 -17 -17 -16 -13 -17 -12 -4 4
13 16 21 21 21 13z"/>
<path d="M553 1682 c-13 -2 -23 -9 -23 -16 0 -25 81 -48 95 -27 8 14 -47 47
-72 43z"/>
<path d="M315 1669 c-4 -5 -10 -7 -14 -5 -11 7 -53 -24 -48 -37 1 -5 10 -11
18 -13 7 -1 27 -5 43 -8 28 -5 86 16 86 33 0 17 -77 44 -85 30z"/>
<path d="M826 1644 c-29 -30 -29 -51 0 -46 22 4 56 40 51 55 -7 21 -24 17 -51
-9z"/>
<path d="M1938 1588 c-9 -53 30 -117 71 -118 24 0 6 78 -25 111 -33 35 -41 36
-46 7z"/>
<path d="M1781 1571 c-16 -11 9 -65 36 -76 17 -8 24 -10 48 -15 19 -4 35 0 35
10 0 13 -61 82 -68 76 -2 -3 -12 -1 -21 4 -10 5 -23 5 -30 1z m50 -48 c13 -16
12 -17 -3 -4 -10 7 -18 15 -18 17 0 8 8 3 21 -13z"/>
<path d="M2504 1555 c-14 -10 -11 -16 20 -48 20 -20 42 -37 50 -37 8 0 21 -3
30 -6 30 -12 18 37 -18 71 -36 34 -57 39 -82 20z m66 -35 c0 -5 -7 -7 -15 -4
-8 4 -15 8 -15 10 0 2 7 4 15 4 8 0 15 -4 15 -10z"/>
<path d="M467 1548 c-23 -12 -47 -61 -38 -76 11 -18 54 6 80 45 11 18 18 33
14 34 -5 0 -15 2 -24 4 -8 1 -23 -1 -32 -7z"/>
<path d="M2097 1533 c-3 -5 -4 -26 -2 -47 2 -30 9 -45 31 -63 16 -12 34 -23
40 -23 17 0 10 64 -9 93 -19 29 -53 51 -60 40z"/>
<path d="M2315 1484 c-32 -30 -24 -48 18 -40 32 7 80 44 72 56 -10 17 -65 7
-90 -16z"/>
<path d="M608 1495 c-2 -3 -13 -6 -24 -8 -30 -5 -70 -35 -83 -63 -15 -34 -8
-42 35 -37 45 5 70 18 106 54 21 20 24 29 15 36 -16 13 -44 23 -49 18z m-18
-47 c0 -6 -3 -8 -6 -5 -4 3 -16 2 -28 -4 -20 -10 -20 -10 -2 5 24 19 36 20 36
4z"/>
<path d="M851 1473 c-9 -19 -9 -69 1 -79 13 -12 39 31 36 59 -4 36 -22 46 -37
20z"/>
<path d="M730 1450 c-27 -27 -26 -43 3 -34 29 8 58 34 51 45 -9 15 -33 10 -54
-11z"/>
<path d="M455 1222 c-30 -6 -45 -22 -38 -39 3 -9 -1 -19 -9 -24 -12 -6 -15
-20 -12 -49 3 -31 -2 -49 -22 -80 -14 -22 -35 -42 -45 -45 -11 -4 -20 -11 -20
-16 -3 -18 -5 -24 -21 -54 -18 -34 -10 -68 18 -79 15 -6 15 -8 1 -24 -15 -16
-39 -66 -42 -87 -3 -19 18 -35 46 -35 30 0 35 10 20 39 -7 13 -4 25 13 46 20
25 26 28 40 16 8 -7 18 -29 22 -48 7 -39 18 -46 66 -41 l33 3 -22 23 c-25 24
-31 72 -10 72 8 0 22 9 33 21 15 16 16 24 6 39 -7 11 -12 42 -12 69 l0 50 33
-5 c25 -4 39 1 67 25 31 26 34 32 23 50 -7 11 -13 30 -13 41 0 11 -4 20 -9 20
-10 0 -47 -43 -53 -62 -3 -8 -9 -8 -24 0 -18 10 -18 11 -1 17 12 5 17 18 17
51 0 35 -6 49 -32 77 -22 23 -40 32 -53 29z"/>
<path d="M289 454 c-28 -65 -67 -151 -86 -192 -8 -17 -22 -32 -29 -32 -8 0
-14 -4 -14 -8 0 -5 23 -9 50 -8 28 0 50 3 50 8 0 4 -7 8 -15 8 -19 0 -19 29 0
57 10 15 26 21 57 21 50 1 59 -3 76 -41 16 -36 16 -37 -9 -37 -11 0 -18 -4
-15 -9 3 -5 30 -8 58 -6 65 3 68 4 44 14 -12 4 -38 52 -71 130 -30 68 -58 128
-64 134 -7 7 -17 -4 -32 -39z m40 -70 c12 -25 19 -49 17 -53 -4 -6 -47 -7 -78
-2 -6 1 31 101 38 101 2 0 12 -21 23 -46z"/>
<path d="M1303 493 c-7 -2 -13 -12 -13 -21 0 -9 -7 -30 -15 -46 -19 -37 -19
-39 5 -26 17 9 60 77 60 95 0 6 -20 5 -37 -2z"/>
<path d="M1644 489 c-3 -5 4 -9 14 -9 25 0 29 -16 26 -130 -3 -126 -2 -120
-19 -120 -8 0 -15 -4 -15 -9 0 -5 25 -8 55 -8 30 1 55 5 55 9 0 4 -7 8 -15 8
-8 0 -16 8 -16 18 -4 60 -3 88 3 97 4 6 36 8 79 5 l73 -5 -1 -40 c-1 -69 -3
-75 -18 -75 -8 0 -15 -4 -15 -9 0 -4 27 -9 60 -9 64 -1 74 3 38 17 -22 8 -23
13 -22 112 2 145 1 139 26 139 12 0 18 3 15 7 -10 10 -117 11 -123 2 -3 -5 4
-9 14 -9 23 0 28 -11 27 -65 l0 -40 -77 -2 c-84 -2 -80 -4 -80 57 0 44 3 50
24 50 12 0 18 3 14 7 -10 10 -115 12 -122 2z"/>
<path d="M977 476 c-7 -18 1 -26 25 -26 11 0 18 7 18 20 0 23 -35 28 -43 6z"/>
<path d="M500 395 c-31 -11 -33 -13 -14 -19 19 -6 21 -14 21 -76 0 -52 -3 -70
-13 -70 -8 0 -14 -4 -14 -9 0 -4 20 -8 45 -7 43 1 59 10 33 18 -12 4 -21 81
-12 111 3 10 17 23 32 28 41 16 57 -9 57 -89 l0 -67 33 -2 c17 -1 32 3 32 8 0
6 -4 8 -9 5 -12 -8 -20 34 -19 99 0 39 -4 53 -22 67 -26 21 -63 17 -93 -9 -19
-17 -20 -17 -14 -1 9 24 -2 27 -43 13z"/>
<path d="M743 397 c-18 -6 -33 -14 -33 -20 0 -5 7 -7 15 -3 13 4 15 -7 15 -69
0 -60 -3 -75 -15 -75 -8 0 -15 -4 -15 -9 0 -5 23 -9 50 -8 28 1 50 5 50 9 0 5
-7 8 -15 8 -12 0 -15 13 -15 59 0 51 3 62 22 75 28 20 33 20 52 0 12 -11 16
-35 16 -84 l0 -69 35 1 c19 1 35 5 35 10 0 4 -6 7 -12 5 -9 -1 -14 20 -18 72
-4 66 -8 76 -32 94 -24 18 -30 18 -57 7 -17 -7 -31 -18 -32 -24 -1 -6 -4 -2
-7 10 -6 17 -11 19 -39 11z"/>
<path d="M1120 392 c-61 -30 -71 -122 -19 -164 24 -20 80 -24 110 -8 29 16 23
31 -8 19 -47 -18 -92 14 -93 64 0 5 8 7 18 6 9 -1 38 -1 65 0 43 1 47 3 47 25
0 31 -29 65 -60 71 -14 3 -41 -3 -60 -13z m70 -23 c18 -32 6 -46 -36 -44 -44
1 -56 22 -29 49 23 22 52 20 65 -5z"/>
<path d="M1417 398 c-30 -11 -46 -51 -30 -77 6 -9 31 -22 57 -29 53 -15 63
-45 22 -63 -30 -14 -66 3 -66 32 0 11 -4 17 -10 14 -5 -3 -10 -19 -10 -34 0
-26 4 -29 36 -33 44 -5 94 18 105 48 11 31 -15 62 -56 70 -45 8 -59 25 -41 49
15 21 66 14 66 -10 0 -8 5 -15 10 -15 6 0 10 11 10 24 0 34 -39 44 -93 24z"/>
<path d="M2044 399 c-18 -5 -35 -16 -38 -25 -9 -24 3 -32 18 -11 15 20 47 22
64 5 21 -21 13 -36 -25 -43 -48 -9 -73 -31 -73 -65 0 -48 43 -66 87 -35 17 12
22 12 26 1 6 -15 54 -19 63 -5 3 5 0 8 -8 7 -10 -2 -14 16 -16 74 -2 44 -8 80
-15 86 -21 16 -51 20 -83 11z m61 -109 c0 -32 -32 -57 -60 -46 -29 11 -14 50
25 63 19 7 35 12 35 12 1 1 1 -12 0 -29z"/>
<path d="M2480 402 c-63 -28 -87 -95 -54 -150 24 -41 89 -56 135 -32 28 16 24
31 -5 20 -46 -17 -91 3 -98 45 -3 18 3 20 56 22 33 2 63 8 67 14 11 18 -1 48
-29 69 -25 21 -45 24 -72 12z m54 -33 c22 -32 11 -45 -37 -44 -46 1 -55 16
-29 48 20 23 48 22 66 -4z"/>
<path d="M2633 397 c-31 -9 -48 -30 -20 -24 8 1 13 -19 15 -70 2 -60 0 -73
-13 -73 -8 0 -15 -4 -15 -9 0 -4 23 -8 50 -7 28 0 50 4 50 8 0 4 -7 8 -15 8
-12 0 -15 13 -15 58 0 64 6 76 36 86 38 12 54 -17 54 -94 l0 -68 35 1 c33 1
52 17 20 17 -11 0 -15 14 -16 58 -1 31 -1 62 0 68 2 15 -33 45 -56 48 -10 2
-30 -3 -45 -10 -21 -11 -27 -11 -30 -1 -2 10 -11 11 -35 4z"/>
<path d="M2880 397 c-28 -14 -39 -59 -20 -82 7 -8 27 -17 46 -21 18 -3 38 -12
44 -19 15 -18 2 -44 -27 -51 -27 -7 -63 19 -63 45 0 12 -2 13 -8 3 -5 -7 -8
-23 -7 -35 4 -51 128 -33 142 21 9 36 -6 53 -60 69 -26 7 -47 18 -47 22 0 42
50 57 72 21 17 -26 23 -25 26 4 1 19 -4 25 -29 30 -41 8 -40 8 -69 -7z"/>
<path d="M968 393 c-22 -5 -24 -23 -3 -23 12 0 15 -14 15 -70 0 -56 -3 -70
-15 -70 -8 0 -15 -4 -15 -9 0 -5 23 -9 50 -9 28 0 50 4 50 9 0 5 -7 9 -15 9
-12 0 -15 16 -15 85 0 90 -1 92 -52 78z"/>
<path d="M2192 383 c9 -10 31 -53 48 -95 18 -43 38 -78 45 -78 7 0 29 37 49
82 20 45 44 87 54 94 15 12 11 13 -27 14 -38 0 -42 -2 -31 -15 10 -12 9 -24
-5 -63 -10 -26 -21 -51 -25 -55 -4 -4 -17 18 -29 50 -21 54 -21 58 -5 70 15
11 10 13 -36 13 -50 0 -52 -1 -38 -17z"/>
</g>
</svg>
